# Mario Party 4 Deluxe Bowser Phone concept mesh
mtllib bowser-phone.mtl
o BowserPhone
v -0.510000 -0.880000 -0.150000
v 0.510000 -0.880000 -0.150000
v 0.610000 -0.780000 -0.150000
v 0.610000 0.660000 -0.150000
v 0.480000 0.820000 -0.150000
v -0.480000 0.820000 -0.150000
v -0.610000 0.660000 -0.150000
v -0.610000 -0.780000 -0.150000
v -0.510000 -0.880000 0.120000
v 0.510000 -0.880000 0.120000
v 0.610000 -0.780000 0.120000
v 0.610000 0.660000 0.120000
v 0.480000 0.820000 0.120000
v -0.480000 0.820000 0.120000
v -0.610000 0.660000 0.120000
v -0.610000 -0.780000 0.120000
v -0.479400 -0.827200 0.200000
v 0.479400 -0.827200 0.200000
v 0.573400 -0.733200 0.200000
v 0.573400 0.620400 0.200000
v 0.451200 0.770800 0.200000
v -0.451200 0.770800 0.200000
v -0.573400 0.620400 0.200000
v -0.573400 -0.733200 0.200000
v -0.370000 -0.220000 0.205000
v 0.370000 -0.220000 0.205000
v 0.430000 -0.150000 0.205000
v 0.430000 0.510000 0.205000
v 0.340000 0.600000 0.205000
v -0.340000 0.600000 0.205000
v -0.430000 0.510000 0.205000
v -0.430000 -0.150000 0.205000
v -0.370000 -0.220000 0.238000
v 0.370000 -0.220000 0.238000
v 0.430000 -0.150000 0.238000
v 0.430000 0.510000 0.238000
v 0.340000 0.600000 0.238000
v -0.340000 0.600000 0.238000
v -0.430000 0.510000 0.238000
v -0.430000 -0.150000 0.238000
v -0.340400 -0.202400 0.255000
v 0.340400 -0.202400 0.255000
v 0.395600 -0.138000 0.255000
v 0.395600 0.469200 0.255000
v 0.312800 0.552000 0.255000
v -0.312800 0.552000 0.255000
v -0.395600 0.469200 0.255000
v -0.395600 -0.138000 0.255000
v -0.290000 -0.110000 0.266000
v 0.290000 -0.110000 0.266000
v 0.340000 -0.060000 0.266000
v 0.340000 0.440000 0.266000
v 0.280000 0.500000 0.266000
v -0.280000 0.500000 0.266000
v -0.340000 0.440000 0.266000
v -0.340000 -0.060000 0.266000
v -0.230000 0.230000 0.279000
v -0.270000 0.410000 0.279000
v -0.150000 0.340000 0.279000
v -0.080000 0.400000 0.279000
v 0.000000 0.360000 0.279000
v 0.080000 0.400000 0.279000
v 0.150000 0.340000 0.279000
v 0.270000 0.410000 0.279000
v 0.230000 0.230000 0.279000
v 0.240000 0.120000 0.279000
v 0.130000 0.000000 0.279000
v -0.130000 0.000000 0.279000
v -0.240000 0.120000 0.279000
v -0.180000 0.240000 0.287000
v -0.040000 0.210000 0.287000
v -0.070000 0.160000 0.287000
v 0.180000 0.240000 0.287000
v 0.040000 0.210000 0.287000
v 0.070000 0.160000 0.287000
v -0.150000 0.080000 0.287000
v 0.150000 0.080000 0.287000
v 0.100000 0.030000 0.287000
v 0.050000 0.070000 0.287000
v 0.000000 0.020000 0.287000
v -0.050000 0.070000 0.287000
v -0.100000 0.030000 0.287000
v -0.320000 -0.430000 0.302000
v -0.208000 -0.430000 0.290000
v -0.223005 -0.374000 0.290000
v -0.264000 -0.333005 0.290000
v -0.320000 -0.318000 0.290000
v -0.376000 -0.333005 0.290000
v -0.416995 -0.374000 0.290000
v -0.432000 -0.430000 0.290000
v -0.416995 -0.486000 0.290000
v -0.376000 -0.526995 0.290000
v -0.320000 -0.542000 0.290000
v -0.264000 -0.526995 0.290000
v -0.223005 -0.486000 0.290000
v -0.320000 -0.420000 0.322000
v -0.226000 -0.420000 0.310000
v -0.238594 -0.373000 0.310000
v -0.273000 -0.338594 0.310000
v -0.320000 -0.326000 0.310000
v -0.367000 -0.338594 0.310000
v -0.401406 -0.373000 0.310000
v -0.414000 -0.420000 0.310000
v -0.401406 -0.467000 0.310000
v -0.367000 -0.501406 0.310000
v -0.320000 -0.514000 0.310000
v -0.273000 -0.501406 0.310000
v -0.238594 -0.467000 0.310000
v 0.000000 -0.430000 0.302000
v 0.112000 -0.430000 0.290000
v 0.096995 -0.374000 0.290000
v 0.056000 -0.333005 0.290000
v 0.000000 -0.318000 0.290000
v -0.056000 -0.333005 0.290000
v -0.096995 -0.374000 0.290000
v -0.112000 -0.430000 0.290000
v -0.096995 -0.486000 0.290000
v -0.056000 -0.526995 0.290000
v -0.000000 -0.542000 0.290000
v 0.056000 -0.526995 0.290000
v 0.096995 -0.486000 0.290000
v 0.000000 -0.420000 0.322000
v 0.094000 -0.420000 0.310000
v 0.081406 -0.373000 0.310000
v 0.047000 -0.338594 0.310000
v 0.000000 -0.326000 0.310000
v -0.047000 -0.338594 0.310000
v -0.081406 -0.373000 0.310000
v -0.094000 -0.420000 0.310000
v -0.081406 -0.467000 0.310000
v -0.047000 -0.501406 0.310000
v -0.000000 -0.514000 0.310000
v 0.047000 -0.501406 0.310000
v 0.081406 -0.467000 0.310000
v 0.320000 -0.430000 0.302000
v 0.432000 -0.430000 0.290000
v 0.416995 -0.374000 0.290000
v 0.376000 -0.333005 0.290000
v 0.320000 -0.318000 0.290000
v 0.264000 -0.333005 0.290000
v 0.223005 -0.374000 0.290000
v 0.208000 -0.430000 0.290000
v 0.223005 -0.486000 0.290000
v 0.264000 -0.526995 0.290000
v 0.320000 -0.542000 0.290000
v 0.376000 -0.526995 0.290000
v 0.416995 -0.486000 0.290000
v 0.320000 -0.420000 0.322000
v 0.414000 -0.420000 0.310000
v 0.401406 -0.373000 0.310000
v 0.367000 -0.338594 0.310000
v 0.320000 -0.326000 0.310000
v 0.273000 -0.338594 0.310000
v 0.238594 -0.373000 0.310000
v 0.226000 -0.420000 0.310000
v 0.238594 -0.467000 0.310000
v 0.273000 -0.501406 0.310000
v 0.320000 -0.514000 0.310000
v 0.367000 -0.501406 0.310000
v 0.401406 -0.467000 0.310000
v -0.100000 -0.660000 0.234000
v -0.072000 -0.660000 0.222000
v -0.075751 -0.646000 0.222000
v -0.086000 -0.635751 0.222000
v -0.100000 -0.632000 0.222000
v -0.114000 -0.635751 0.222000
v -0.124249 -0.646000 0.222000
v -0.128000 -0.660000 0.222000
v -0.124249 -0.674000 0.222000
v -0.114000 -0.684249 0.222000
v -0.100000 -0.688000 0.222000
v -0.086000 -0.684249 0.222000
v -0.075751 -0.674000 0.222000
v 0.000000 -0.660000 0.234000
v 0.028000 -0.660000 0.222000
v 0.024249 -0.646000 0.222000
v 0.014000 -0.635751 0.222000
v 0.000000 -0.632000 0.222000
v -0.014000 -0.635751 0.222000
v -0.024249 -0.646000 0.222000
v -0.028000 -0.660000 0.222000
v -0.024249 -0.674000 0.222000
v -0.014000 -0.684249 0.222000
v -0.000000 -0.688000 0.222000
v 0.014000 -0.684249 0.222000
v 0.024249 -0.674000 0.222000
v 0.100000 -0.660000 0.234000
v 0.128000 -0.660000 0.222000
v 0.124249 -0.646000 0.222000
v 0.114000 -0.635751 0.222000
v 0.100000 -0.632000 0.222000
v 0.086000 -0.635751 0.222000
v 0.075751 -0.646000 0.222000
v 0.072000 -0.660000 0.222000
v 0.075751 -0.674000 0.222000
v 0.086000 -0.684249 0.222000
v 0.100000 -0.688000 0.222000
v 0.114000 -0.684249 0.222000
v 0.124249 -0.674000 0.222000
v -0.100000 -0.750000 0.234000
v -0.072000 -0.750000 0.222000
v -0.075751 -0.736000 0.222000
v -0.086000 -0.725751 0.222000
v -0.100000 -0.722000 0.222000
v -0.114000 -0.725751 0.222000
v -0.124249 -0.736000 0.222000
v -0.128000 -0.750000 0.222000
v -0.124249 -0.764000 0.222000
v -0.114000 -0.774249 0.222000
v -0.100000 -0.778000 0.222000
v -0.086000 -0.774249 0.222000
v -0.075751 -0.764000 0.222000
v 0.000000 -0.750000 0.234000
v 0.028000 -0.750000 0.222000
v 0.024249 -0.736000 0.222000
v 0.014000 -0.725751 0.222000
v 0.000000 -0.722000 0.222000
v -0.014000 -0.725751 0.222000
v -0.024249 -0.736000 0.222000
v -0.028000 -0.750000 0.222000
v -0.024249 -0.764000 0.222000
v -0.014000 -0.774249 0.222000
v -0.000000 -0.778000 0.222000
v 0.014000 -0.774249 0.222000
v 0.024249 -0.764000 0.222000
v 0.100000 -0.750000 0.234000
v 0.128000 -0.750000 0.222000
v 0.124249 -0.736000 0.222000
v 0.114000 -0.725751 0.222000
v 0.100000 -0.722000 0.222000
v 0.086000 -0.725751 0.222000
v 0.075751 -0.736000 0.222000
v 0.072000 -0.750000 0.222000
v 0.075751 -0.764000 0.222000
v 0.086000 -0.774249 0.222000
v 0.100000 -0.778000 0.222000
v 0.114000 -0.774249 0.222000
v 0.124249 -0.764000 0.222000
v -0.430000 0.790000 0.032000
v -0.300000 0.790000 0.020000
v -0.317417 0.855000 0.020000
v -0.365000 0.902583 0.020000
v -0.430000 0.920000 0.020000
v -0.495000 0.902583 0.020000
v -0.542583 0.855000 0.020000
v -0.560000 0.790000 0.020000
v -0.542583 0.725000 0.020000
v -0.495000 0.677417 0.020000
v -0.430000 0.660000 0.020000
v -0.365000 0.677417 0.020000
v -0.317417 0.725000 0.020000
v -0.510000 1.020000 0.020000
v -0.315000 0.790000 0.000000
v -0.341905 0.790000 0.073921
v -0.410030 0.790000 0.113253
v -0.487500 0.790000 0.099593
v -0.538065 0.790000 0.039332
v -0.538065 0.790000 -0.039332
v -0.487500 0.790000 -0.099593
v -0.410030 0.790000 -0.113253
v -0.341905 0.790000 -0.073921
v 0.000000 0.790000 0.032000
v 0.130000 0.790000 0.020000
v 0.112583 0.855000 0.020000
v 0.065000 0.902583 0.020000
v 0.000000 0.920000 0.020000
v -0.065000 0.902583 0.020000
v -0.112583 0.855000 0.020000
v -0.130000 0.790000 0.020000
v -0.112583 0.725000 0.020000
v -0.065000 0.677417 0.020000
v -0.000000 0.660000 0.020000
v 0.065000 0.677417 0.020000
v 0.112583 0.725000 0.020000
v 0.000000 1.090000 0.020000
v 0.115000 0.790000 0.000000
v 0.088095 0.790000 0.073921
v 0.019970 0.790000 0.113253
v -0.057500 0.790000 0.099593
v -0.108065 0.790000 0.039332
v -0.108065 0.790000 -0.039332
v -0.057500 0.790000 -0.099593
v 0.019970 0.790000 -0.113253
v 0.088095 0.790000 -0.073921
v 0.430000 0.790000 0.032000
v 0.560000 0.790000 0.020000
v 0.542583 0.855000 0.020000
v 0.495000 0.902583 0.020000
v 0.430000 0.920000 0.020000
v 0.365000 0.902583 0.020000
v 0.317417 0.855000 0.020000
v 0.300000 0.790000 0.020000
v 0.317417 0.725000 0.020000
v 0.365000 0.677417 0.020000
v 0.430000 0.660000 0.020000
v 0.495000 0.677417 0.020000
v 0.542583 0.725000 0.020000
v 0.510000 1.020000 0.020000
v 0.545000 0.790000 0.000000
v 0.518095 0.790000 0.073921
v 0.449970 0.790000 0.113253
v 0.372500 0.790000 0.099593
v 0.321935 0.790000 0.039332
v 0.321935 0.790000 -0.039332
v 0.372500 0.790000 -0.099593
v 0.449970 0.790000 -0.113253
v 0.518095 0.790000 -0.073921
v 0.600000 -0.100000 -0.050000
v 0.680000 -0.100000 -0.050000
v 0.680000 0.180000 -0.050000
v 0.600000 0.180000 -0.050000
v 0.600000 -0.100000 0.100000
v 0.680000 -0.100000 0.100000
v 0.680000 0.180000 0.100000
v 0.600000 0.180000 0.100000
usemtl green_side
f 8 7 6 5 4 3 2 1
usemtl green_front
f 17 18 19 20 21 22 23 24
usemtl green_side
f 1 2 10 9
usemtl green_bevel
f 9 10 18 17
usemtl green_side
f 2 3 11 10
usemtl green_bevel
f 10 11 19 18
usemtl green_side
f 3 4 12 11
usemtl green_bevel
f 11 12 20 19
usemtl green_side
f 4 5 13 12
usemtl green_bevel
f 12 13 21 20
usemtl green_side
f 5 6 14 13
usemtl green_bevel
f 13 14 22 21
usemtl green_side
f 6 7 15 14
usemtl green_bevel
f 14 15 23 22
usemtl green_side
f 7 8 16 15
usemtl green_bevel
f 15 16 24 23
usemtl green_side
f 8 1 9 16
usemtl green_bevel
f 16 9 17 24
usemtl gold_side
f 32 31 30 29 28 27 26 25
usemtl gold_face
f 41 42 43 44 45 46 47 48
usemtl gold_side
f 25 26 34 33
usemtl gold_bevel
f 33 34 42 41
usemtl gold_side
f 26 27 35 34
usemtl gold_bevel
f 34 35 43 42
usemtl gold_side
f 27 28 36 35
usemtl gold_bevel
f 35 36 44 43
usemtl gold_side
f 28 29 37 36
usemtl gold_bevel
f 36 37 45 44
usemtl gold_side
f 29 30 38 37
usemtl gold_bevel
f 37 38 46 45
usemtl gold_side
f 30 31 39 38
usemtl gold_bevel
f 38 39 47 46
usemtl gold_side
f 31 32 40 39
usemtl gold_bevel
f 39 40 48 47
usemtl gold_side
f 32 25 33 40
usemtl gold_bevel
f 40 33 41 48
usemtl screen
f 49 50 51 52 53 54 55 56
usemtl bowser_red
f 57 58 59 60 61 62 63 64 65 66 67 68 69
usemtl screen
f 70 71 72
f 73 74 75
f 76 77 78 79 80 81 82
usemtl button_shadow
f 83 84 85
f 83 85 86
f 83 86 87
f 83 87 88
f 83 88 89
f 83 89 90
f 83 90 91
f 83 91 92
f 83 92 93
f 83 93 94
f 83 94 95
f 83 95 84
usemtl button_red
f 96 97 98
f 96 98 99
f 96 99 100
f 96 100 101
f 96 101 102
f 96 102 103
f 96 103 104
f 96 104 105
f 96 105 106
f 96 106 107
f 96 107 108
f 96 108 97
usemtl button_shadow
f 109 110 111
f 109 111 112
f 109 112 113
f 109 113 114
f 109 114 115
f 109 115 116
f 109 116 117
f 109 117 118
f 109 118 119
f 109 119 120
f 109 120 121
f 109 121 110
usemtl button_red
f 122 123 124
f 122 124 125
f 122 125 126
f 122 126 127
f 122 127 128
f 122 128 129
f 122 129 130
f 122 130 131
f 122 131 132
f 122 132 133
f 122 133 134
f 122 134 123
usemtl button_shadow
f 135 136 137
f 135 137 138
f 135 138 139
f 135 139 140
f 135 140 141
f 135 141 142
f 135 142 143
f 135 143 144
f 135 144 145
f 135 145 146
f 135 146 147
f 135 147 136
usemtl button_red
f 148 149 150
f 148 150 151
f 148 151 152
f 148 152 153
f 148 153 154
f 148 154 155
f 148 155 156
f 148 156 157
f 148 157 158
f 148 158 159
f 148 159 160
f 148 160 149
usemtl speaker
f 161 162 163
f 161 163 164
f 161 164 165
f 161 165 166
f 161 166 167
f 161 167 168
f 161 168 169
f 161 169 170
f 161 170 171
f 161 171 172
f 161 172 173
f 161 173 162
f 174 175 176
f 174 176 177
f 174 177 178
f 174 178 179
f 174 179 180
f 174 180 181
f 174 181 182
f 174 182 183
f 174 183 184
f 174 184 185
f 174 185 186
f 174 186 175
f 187 188 189
f 187 189 190
f 187 190 191
f 187 191 192
f 187 192 193
f 187 193 194
f 187 194 195
f 187 195 196
f 187 196 197
f 187 197 198
f 187 198 199
f 187 199 188
f 200 201 202
f 200 202 203
f 200 203 204
f 200 204 205
f 200 205 206
f 200 206 207
f 200 207 208
f 200 208 209
f 200 209 210
f 200 210 211
f 200 211 212
f 200 212 201
f 213 214 215
f 213 215 216
f 213 216 217
f 213 217 218
f 213 218 219
f 213 219 220
f 213 220 221
f 213 221 222
f 213 222 223
f 213 223 224
f 213 224 225
f 213 225 214
f 226 227 228
f 226 228 229
f 226 229 230
f 226 230 231
f 226 231 232
f 226 232 233
f 226 233 234
f 226 234 235
f 226 235 236
f 226 236 237
f 226 237 238
f 226 238 227
usemtl gold_face
f 239 240 241
f 239 241 242
f 239 242 243
f 239 243 244
f 239 244 245
f 239 245 246
f 239 246 247
f 239 247 248
f 239 248 249
f 239 249 250
f 239 250 251
f 239 251 240
usemtl ivory
f 253 254 252
f 254 255 252
f 255 256 252
f 256 257 252
f 257 258 252
f 258 259 252
f 259 260 252
f 260 261 252
f 261 253 252
f 261 260 259 258 257 256 255 254 253
usemtl gold_face
f 262 263 264
f 262 264 265
f 262 265 266
f 262 266 267
f 262 267 268
f 262 268 269
f 262 269 270
f 262 270 271
f 262 271 272
f 262 272 273
f 262 273 274
f 262 274 263
usemtl ivory
f 276 277 275
f 277 278 275
f 278 279 275
f 279 280 275
f 280 281 275
f 281 282 275
f 282 283 275
f 283 284 275
f 284 276 275
f 284 283 282 281 280 279 278 277 276
usemtl gold_face
f 285 286 287
f 285 287 288
f 285 288 289
f 285 289 290
f 285 290 291
f 285 291 292
f 285 292 293
f 285 293 294
f 285 294 295
f 285 295 296
f 285 296 297
f 285 297 286
usemtl ivory
f 299 300 298
f 300 301 298
f 301 302 298
f 302 303 298
f 303 304 298
f 304 305 298
f 305 306 298
f 306 307 298
f 307 299 298
f 307 306 305 304 303 302 301 300 299
usemtl gold_side
f 308 309 310 311
f 312 315 314 313
f 308 312 313 309
f 309 313 314 310
f 310 314 315 311
f 311 315 312 308
